<?xml version="1.0" encoding="UTF-8" standalone="no"?>
<!DOCTYPE svg PUBLIC "-//W3C//DTD SVG 1.1//EN" "http://www.w3.org/Graphics/SVG/1.1/DTD/svg11.dtd">
<svg version="1.1" xmlns="http://www.w3.org/2000/svg" xmlns:xlink="http://www.w3.org/1999/xlink" preserveAspectRatio="xMidYMid meet" viewBox="51.19047619047626 153.57142857142878 257.2391005651504 257.2391005651504" width="500" height="500"><defs><path d="M179.81 410.81C108.78 410.81 51.19 353.23 51.19 282.19C51.19 211.16 108.78 153.57 179.81 153.57C250.84 153.57 308.43 211.16 308.43 282.19C308.43 353.23 250.84 410.81 179.81 410.81Z" id="d6jyUAaFf1"></path><path d="M75.85 382.38C66.95 382.38 60.78 374.16 62.32 364.57C63.35 358.44 68.49 327.78 77.74 272.6L282.05 272.6C291.3 327.78 296.44 358.44 297.47 364.57C298.84 374.16 292.67 382.38 283.77 382.38C242.18 382.38 96.64 382.38 75.85 382.38Z" id="a6OwFxPAw"></path><path d="M93.66 371.93C88.11 338.74 85.03 320.3 84.42 316.61C83.05 308.91 88.18 302.23 95.38 302.23C112.28 302.23 247.51 302.23 264.41 302.23C271.61 302.23 276.75 308.91 275.38 316.61C274.75 320.3 271.61 338.74 265.96 371.93L93.66 371.93Z" id="b3p4F4DRgh"></path><path d="M287.53 245.71L287.53 269.17L281.88 269.17L281.88 272.77L77.57 272.77L77.57 269.17L71.91 269.17L71.91 245.71L90.92 225.85L268.7 225.85L287.71 245.71L287.53 245.71ZM95.03 251.19L264.59 251.19L259.96 240.23L99.49 240.23L95.03 251.19Z" id="aG7ZyJOO6"></path><path d="M247.12 182C247.12 182 247.12 182 247.12 182C247.12 188.9 247.12 244.12 247.12 251.02C247.12 251.02 247.12 251.02 247.12 251.02C233.66 251.02 125.96 251.02 112.5 251.02C112.5 251.02 112.5 251.02 112.5 251.02C112.5 244.12 112.5 188.9 112.5 182C112.5 182 112.5 182 112.5 182C139.43 182 233.66 182 247.12 182Z" id="b2emKy5zRL"></path><path d="M105.48 306.34C104.45 306.34 103.43 307.2 103.43 308.39C103.43 309.08 103.43 314.56 103.43 315.24C103.43 316.27 104.28 317.3 105.48 317.3C106.25 317.3 112.42 317.3 113.19 317.3C114.22 317.3 115.24 316.44 115.24 315.24C115.24 314.56 115.24 309.08 115.24 308.39C115.07 307.2 114.22 306.34 113.19 306.34C111.65 306.34 106.25 306.34 105.48 306.34Z" id="c6G54l2j"></path><path d="M119.35 306.34C118.33 306.34 117.3 307.2 117.3 308.39C117.3 309.08 117.3 314.56 117.3 315.24C117.3 316.27 118.15 317.3 119.35 317.3C120.12 317.3 126.29 317.3 127.06 317.3C128.09 317.3 129.12 316.44 129.12 315.24C129.12 314.56 129.12 309.08 129.12 308.39C128.94 307.2 128.09 306.34 127.06 306.34C125.52 306.34 120.12 306.34 119.35 306.34Z" id="bSzFFH2Wj"></path><path d="M133.23 306.34C132.2 306.34 131.17 307.2 131.17 308.39C131.17 309.08 131.17 314.56 131.17 315.24C131.17 316.27 132.03 317.3 133.23 317.3C134 317.3 140.16 317.3 140.93 317.3C141.96 317.3 142.99 316.44 142.99 315.24C142.99 314.56 142.99 309.08 142.99 308.39C142.82 307.2 141.96 306.34 140.93 306.34C139.39 306.34 134 306.34 133.23 306.34Z" id="ae5GQ8enN"></path><path d="M146.93 306.34C145.9 306.34 144.87 307.2 144.87 308.39C144.87 309.08 144.87 314.56 144.87 315.24C144.87 316.27 145.73 317.3 146.93 317.3C147.7 317.3 153.86 317.3 154.63 317.3C155.66 317.3 156.69 316.44 156.69 315.24C156.69 314.56 156.69 309.08 156.69 308.39C156.69 307.2 155.83 306.34 154.63 306.34C153.09 306.34 147.7 306.34 146.93 306.34Z" id="e2F6wg08IN"></path><path d="M160.8 306.34C159.77 306.34 158.74 307.2 158.74 308.39C158.74 309.08 158.74 314.56 158.74 315.24C158.74 316.27 159.6 317.3 160.8 317.3C161.57 317.3 167.74 317.3 168.51 317.3C169.53 317.3 170.56 316.44 170.56 315.24C170.56 314.56 170.56 309.08 170.56 308.39C170.56 307.2 169.71 306.34 168.51 306.34C166.97 306.34 161.57 306.34 160.8 306.34Z" id="g1CZZGc2dW"></path><path d="M174.67 306.34C173.64 306.34 172.62 307.2 172.62 308.39C172.62 309.08 172.62 314.56 172.62 315.24C172.62 316.27 173.47 317.3 174.67 317.3C175.44 317.3 181.61 317.3 182.38 317.3C183.41 317.3 184.43 316.44 184.43 315.24C184.43 314.56 184.43 309.08 184.43 308.39C184.43 307.2 183.58 306.34 182.38 306.34C180.84 306.34 175.44 306.34 174.67 306.34Z" id="n9oHbWLox"></path><path d="M188.54 306.34C187.52 306.34 186.49 307.2 186.49 308.39C186.49 309.08 186.49 314.56 186.49 315.24C186.49 316.27 187.35 317.3 188.54 317.3C189.32 317.3 195.48 317.3 196.25 317.3C197.28 317.3 198.31 316.44 198.31 315.24C198.31 314.56 198.31 309.08 198.31 308.39C198.31 307.2 197.28 306.34 196.25 306.34C194.71 306.34 189.32 306.34 188.54 306.34Z" id="d1NBMphx7S"></path><path d="M202.42 306.34C201.39 306.34 200.36 307.2 200.36 308.39C200.36 309.08 200.36 314.56 200.36 315.24C200.36 316.27 201.22 317.3 202.42 317.3C203.19 317.3 209.35 317.3 210.12 317.3C211.15 317.3 212.18 316.44 212.18 315.24C212.18 314.56 212.18 309.08 212.18 308.39C212.01 307.2 211.15 306.34 210.12 306.34C208.58 306.34 203.19 306.34 202.42 306.34Z" id="b2mtMNLkwo"></path><path d="M216.29 306.34C215.26 306.34 214.23 307.2 214.23 308.39C214.23 309.08 214.23 314.56 214.23 315.24C214.23 316.27 215.09 317.3 216.29 317.3C217.06 317.3 223.23 317.3 224 317.3C225.02 317.3 226.05 316.44 226.05 315.24C226.05 314.56 226.05 309.08 226.05 308.39C225.88 307.2 225.02 306.34 224 306.34C222.45 306.34 217.06 306.34 216.29 306.34Z" id="d4ndGBvZEo"></path><path d="M230.16 306.34C229.13 306.34 228.11 307.2 228.11 308.39C228.11 309.08 228.11 314.56 228.11 315.24C228.11 316.27 228.96 317.3 230.16 317.3C230.93 317.3 237.1 317.3 237.87 317.3C238.9 317.3 239.92 316.44 239.92 315.24C239.92 314.56 239.92 309.08 239.92 308.39C239.75 307.2 238.9 306.34 237.87 306.34C236.33 306.34 230.93 306.34 230.16 306.34Z" id="cd4OCC2IC"></path><path d="M244.03 306.34C243.01 306.34 241.98 307.2 241.98 308.39C241.98 309.08 241.98 314.56 241.98 315.24C241.98 316.27 242.83 317.3 244.03 317.3C244.8 317.3 250.97 317.3 251.74 317.3C252.77 317.3 253.8 316.44 253.8 315.24C253.8 314.56 253.8 309.08 253.8 308.39C253.62 307.2 252.77 306.34 251.74 306.34C250.2 306.34 244.8 306.34 244.03 306.34Z" id="eofJJG2ND"></path><path d="M105.48 337.68C104.45 337.68 103.43 338.54 103.43 339.74C103.43 340.42 103.43 345.9 103.43 346.59C103.43 347.61 104.28 348.64 105.48 348.64C106.25 348.64 112.42 348.64 113.19 348.64C114.22 348.64 115.24 347.79 115.24 346.59C115.24 345.9 115.24 340.42 115.24 339.74C115.07 338.54 114.22 337.68 113.19 337.68C111.65 337.68 106.25 337.68 105.48 337.68Z" id="d3gytP7Zjf"></path><path d="M119.35 337.68C118.33 337.68 117.3 338.54 117.3 339.74C117.3 340.42 117.3 345.9 117.3 346.59C117.3 347.61 118.15 348.64 119.35 348.64C120.12 348.64 126.29 348.64 127.06 348.64C128.09 348.64 129.12 347.79 129.12 346.59C129.12 345.9 129.12 340.42 129.12 339.74C128.94 338.54 128.09 337.68 127.06 337.68C125.52 337.68 120.12 337.68 119.35 337.68Z" id="b2UO8ubBca"></path><path d="M133.23 337.68C132.2 337.68 131.17 338.54 131.17 339.74C131.17 340.42 131.17 345.9 131.17 346.59C131.17 347.61 132.03 348.64 133.23 348.64C134 348.64 140.16 348.64 140.93 348.64C141.96 348.64 142.99 347.79 142.99 346.59C142.99 345.9 142.99 340.42 142.99 339.74C142.82 338.54 141.96 337.68 140.93 337.68C139.39 337.68 134 337.68 133.23 337.68Z" id="a2EHeB6f5"></path><path d="M146.93 337.68C145.9 337.68 144.87 338.54 144.87 339.74C144.87 340.42 144.87 345.9 144.87 346.59C144.87 347.61 145.73 348.64 146.93 348.64C147.7 348.64 153.86 348.64 154.63 348.64C155.66 348.64 156.69 347.79 156.69 346.59C156.69 345.9 156.69 340.42 156.69 339.74C156.69 338.54 155.83 337.68 154.63 337.68C153.09 337.68 147.7 337.68 146.93 337.68Z" id="a5GrZoGs1x"></path><path d="M160.8 337.68C159.77 337.68 158.74 338.54 158.74 339.74C158.74 340.42 158.74 345.9 158.74 346.59C158.74 347.61 159.6 348.64 160.8 348.64C161.57 348.64 167.74 348.64 168.51 348.64C169.53 348.64 170.56 347.79 170.56 346.59C170.56 345.9 170.56 340.42 170.56 339.74C170.56 338.54 169.71 337.68 168.51 337.68C166.97 337.68 161.57 337.68 160.8 337.68Z" id="aBLkInRWo"></path><path d="M174.67 337.68C173.64 337.68 172.62 338.54 172.62 339.74C172.62 340.42 172.62 345.9 172.62 346.59C172.62 347.61 173.47 348.64 174.67 348.64C175.44 348.64 181.61 348.64 182.38 348.64C183.41 348.64 184.43 347.79 184.43 346.59C184.43 345.9 184.43 340.42 184.43 339.74C184.43 338.54 183.58 337.68 182.38 337.68C180.84 337.68 175.44 337.68 174.67 337.68Z" id="c2LS0YT0EZ"></path><path d="M188.54 337.68C187.52 337.68 186.49 338.54 186.49 339.74C186.49 340.42 186.49 345.9 186.49 346.59C186.49 347.61 187.35 348.64 188.54 348.64C189.32 348.64 195.48 348.64 196.25 348.64C197.28 348.64 198.31 347.79 198.31 346.59C198.31 345.9 198.31 340.42 198.31 339.74C198.31 338.54 197.28 337.68 196.25 337.68C194.71 337.68 189.32 337.68 188.54 337.68Z" id="gvEmS2Y5e"></path><path d="M202.42 337.68C201.39 337.68 200.36 338.54 200.36 339.74C200.36 340.42 200.36 345.9 200.36 346.59C200.36 347.61 201.22 348.64 202.42 348.64C203.19 348.64 209.35 348.64 210.12 348.64C211.15 348.64 212.18 347.79 212.18 346.59C212.18 345.9 212.18 340.42 212.18 339.74C212.01 338.54 211.15 337.68 210.12 337.68C208.58 337.68 203.19 337.68 202.42 337.68Z" id="cvx26cvro"></path><path d="M216.29 337.68C215.26 337.68 214.23 338.54 214.23 339.74C214.23 340.42 214.23 345.9 214.23 346.59C214.23 347.61 215.09 348.64 216.29 348.64C217.06 348.64 223.23 348.64 224 348.64C225.02 348.64 226.05 347.79 226.05 346.59C226.05 345.9 226.05 340.42 226.05 339.74C225.88 338.54 225.02 337.68 224 337.68C222.45 337.68 217.06 337.68 216.29 337.68Z" id="a48lJxU7j"></path><path d="M230.16 337.68C229.13 337.68 228.11 338.54 228.11 339.74C228.11 340.42 228.11 345.9 228.11 346.59C228.11 347.61 228.96 348.64 230.16 348.64C230.93 348.64 237.1 348.64 237.87 348.64C238.9 348.64 239.92 347.79 239.92 346.59C239.92 345.9 239.92 340.42 239.92 339.74C239.75 338.54 238.9 337.68 237.87 337.68C236.33 337.68 230.93 337.68 230.16 337.68Z" id="ag3boIx5c"></path><path d="M244.03 337.68C243.01 337.68 241.98 338.54 241.98 339.74C241.98 340.42 241.98 345.9 241.98 346.59C241.98 347.61 242.83 348.64 244.03 348.64C244.8 348.64 250.97 348.64 251.74 348.64C252.77 348.64 253.8 347.79 253.8 346.59C253.8 345.9 253.8 340.42 253.8 339.74C253.62 338.54 252.77 337.68 251.74 337.68C250.2 337.68 244.8 337.68 244.03 337.68Z" id="b14pmn9mmF"></path><path d="M98.46 321.92C97.43 321.92 96.4 322.78 96.4 323.98C96.4 324.66 96.4 330.15 96.4 330.83C96.4 331.86 97.26 332.89 98.46 332.89C99.23 332.89 105.4 332.89 106.17 332.89C107.19 332.89 108.22 332.03 108.22 330.83C108.22 330.15 108.22 324.66 108.22 323.98C108.22 322.78 107.37 321.92 106.17 321.92C104.62 321.92 99.23 321.92 98.46 321.92Z" id="h2oG60BWM9"></path><path d="M112.33 321.92C111.3 321.92 110.28 322.78 110.28 323.98C110.28 324.66 110.28 330.15 110.28 330.83C110.28 331.86 111.13 332.89 112.33 332.89C113.1 332.89 119.27 332.89 120.04 332.89C121.07 332.89 122.09 332.03 122.09 330.83C122.09 330.15 122.09 324.66 122.09 323.98C122.09 322.78 121.24 321.92 120.04 321.92C118.5 321.92 113.1 321.92 112.33 321.92Z" id="ajvhj5pYz"></path><path d="M126.2 321.92C125.18 321.92 124.15 322.78 124.15 323.98C124.15 324.66 124.15 330.15 124.15 330.83C124.15 331.86 125.01 332.89 126.2 332.89C126.97 332.89 133.14 332.89 133.91 332.89C134.94 332.89 135.97 332.03 135.97 330.83C135.97 330.15 135.97 324.66 135.97 323.98C135.97 322.78 135.11 321.92 133.91 321.92C132.37 321.92 126.97 321.92 126.2 321.92Z" id="e2aXXVUP9z"></path><path d="M140.08 321.92C139.05 321.92 138.02 322.78 138.02 323.98C138.02 324.66 138.02 330.15 138.02 330.83C138.02 331.86 138.88 332.89 140.08 332.89C140.85 332.89 147.01 332.89 147.78 332.89C148.81 332.89 149.84 332.03 149.84 330.83C149.84 330.15 149.84 324.66 149.84 323.98C149.84 322.78 148.81 321.92 147.78 321.92C146.24 321.92 140.85 321.92 140.08 321.92Z" id="aMEfC2Dlp"></path><path d="M153.95 321.92C152.92 321.92 151.89 322.78 151.89 323.98C151.89 324.66 151.89 330.15 151.89 330.83C151.89 331.86 152.75 332.89 153.95 332.89C154.72 332.89 160.89 332.89 161.66 332.89C162.68 332.89 163.71 332.03 163.71 330.83C163.71 330.15 163.71 324.66 163.71 323.98C163.54 322.78 162.68 321.92 161.66 321.92C160.11 321.92 154.72 321.92 153.95 321.92Z" id="aLcqT49ey"></path><path d="M167.82 321.92C166.79 321.92 165.77 322.78 165.77 323.98C165.77 324.66 165.77 330.15 165.77 330.83C165.77 331.86 166.62 332.89 167.82 332.89C168.59 332.89 174.76 332.89 175.53 332.89C176.56 332.89 177.58 332.03 177.58 330.83C177.58 330.15 177.58 324.66 177.58 323.98C177.41 322.78 176.56 321.92 175.53 321.92C173.99 321.92 168.59 321.92 167.82 321.92Z" id="f5mkZq70h0"></path><path d="M181.69 321.92C180.67 321.92 179.64 322.78 179.64 323.98C179.64 324.66 179.64 330.15 179.64 330.83C179.64 331.86 180.49 332.89 181.69 332.89C182.46 332.89 188.63 332.89 189.4 332.89C190.43 332.89 191.46 332.03 191.46 330.83C191.46 330.15 191.46 324.66 191.46 323.98C191.28 322.78 190.43 321.92 189.4 321.92C187.86 321.92 182.46 321.92 181.69 321.92Z" id="a3rfa6Ylua"></path><path d="M195.4 321.92C194.37 321.92 193.34 322.78 193.34 323.98C193.34 324.66 193.34 330.15 193.34 330.83C193.34 331.86 194.2 332.89 195.4 332.89C196.17 332.89 202.33 332.89 203.1 332.89C204.13 332.89 205.16 332.03 205.16 330.83C205.16 330.15 205.16 324.66 205.16 323.98C205.16 322.78 204.3 321.92 203.1 321.92C201.56 321.92 196.17 321.92 195.4 321.92Z" id="b1C8OOjpBu"></path><path d="M209.27 321.92C208.24 321.92 207.21 322.78 207.21 323.98C207.21 324.66 207.21 330.15 207.21 330.83C207.21 331.86 208.07 332.89 209.27 332.89C210.04 332.89 216.2 332.89 216.97 332.89C218 332.89 219.03 332.03 219.03 330.83C219.03 330.15 219.03 324.66 219.03 323.98C219.03 322.78 218.17 321.92 216.97 321.92C215.43 321.92 210.04 321.92 209.27 321.92Z" id="bpdvrGH1C"></path><path d="M223.14 321.92C222.11 321.92 221.08 322.78 221.08 323.98C221.08 324.66 221.08 330.15 221.08 330.83C221.08 331.86 221.94 332.89 223.14 332.89C223.91 332.89 230.08 332.89 230.85 332.89C231.87 332.89 232.9 332.03 232.9 330.83C232.9 330.15 232.9 324.66 232.9 323.98C232.9 322.78 232.05 321.92 230.85 321.92C229.31 321.92 223.91 321.92 223.14 321.92Z" id="cBIBzKmzF"></path><path d="M237.01 321.92C235.98 321.92 234.96 322.78 234.96 323.98C234.96 324.66 234.96 330.15 234.96 330.83C234.96 331.86 235.81 332.89 237.01 332.89C237.78 332.89 243.95 332.89 244.72 332.89C245.75 332.89 246.77 332.03 246.77 330.83C246.77 330.15 246.77 324.66 246.77 323.98C246.77 322.78 245.75 321.92 244.72 321.92C243.18 321.92 237.78 321.92 237.01 321.92Z" id="b2aVFAM6JG"></path><path d="M250.88 321.92C249.86 321.92 248.83 322.78 248.83 323.98C248.83 324.66 248.83 330.15 248.83 330.83C248.83 331.86 249.69 332.89 250.88 332.89C251.66 332.89 257.82 332.89 258.59 332.89C259.62 332.89 260.65 332.03 260.65 330.83C260.65 330.15 260.65 324.66 260.65 323.98C260.48 322.78 259.62 321.92 258.59 321.92C257.05 321.92 251.66 321.92 250.88 321.92Z" id="c1QoVJPVkO"></path><path d="M132.54 354.46C131.86 354.46 131.34 355.15 131.34 355.83C131.34 356.55 131.34 362.31 131.34 363.03C131.34 363.88 131.86 364.4 132.54 364.4C141.77 364.4 215.62 364.4 224.85 364.4C225.54 364.4 226.05 363.71 226.05 363.03C226.05 362.31 226.05 356.55 226.05 355.83C225.88 355.15 225.37 354.46 224.68 354.46C206.25 354.46 141.76 354.46 132.54 354.46Z" id="g375XI8PYn"></path><path d="M187.35 201.53C187.35 201.53 187.35 201.53 187.35 201.53C187.35 202.16 187.35 207.23 187.35 207.86C187.35 207.86 187.35 207.86 187.35 207.86C181.69 207.86 136.48 207.86 130.83 207.86C130.83 207.86 130.83 207.86 130.83 207.86C130.83 207.23 130.83 202.16 130.83 201.53C130.83 201.53 130.83 201.53 130.83 201.53C142.13 201.53 181.69 201.53 187.35 201.53Z" id="cetXi9Vct"></path><path d="M228.96 220.71C228.96 220.71 228.96 220.71 228.96 220.71C228.96 221.34 228.96 226.41 228.96 227.04C228.96 227.04 228.96 227.04 228.96 227.04C219.15 227.04 140.64 227.04 130.83 227.04C130.83 227.04 130.83 227.04 130.83 227.04C130.83 226.41 130.83 221.34 130.83 220.71C130.83 220.71 130.83 220.71 130.83 220.71C150.46 220.71 219.15 220.71 228.96 220.71Z" id="avqgL3UA2"></path><path d="M228.96 240.06C228.96 240.06 228.96 240.06 228.96 240.06C228.96 240.69 228.96 245.76 228.96 246.4C228.96 246.4 228.96 246.4 228.96 246.4C219.15 246.4 140.64 246.4 130.83 246.4C130.83 246.4 130.83 246.4 130.83 246.4C130.83 245.76 130.83 240.69 130.83 240.06C130.83 240.06 130.83 240.06 130.83 240.06C150.46 240.06 219.15 240.06 228.96 240.06Z" id="c23kdTFzvM"></path></defs><g><g><g><use xlink:href="#d6jyUAaFf1" opacity="1" fill="#009688" fill-opacity="1"></use><g><use xlink:href="#d6jyUAaFf1" opacity="1" fill-opacity="0" stroke="#000000" stroke-width="1" stroke-opacity="0"></use></g></g><g><use xlink:href="#a6OwFxPAw" opacity="1" fill="#ffce00" fill-opacity="1"></use><g><use xlink:href="#a6OwFxPAw" opacity="1" fill-opacity="0" stroke="#000000" stroke-width="1" stroke-opacity="0"></use></g></g><g><use xlink:href="#b3p4F4DRgh" opacity="1" fill="#414753" fill-opacity="1"></use><g><use xlink:href="#b3p4F4DRgh" opacity="1" fill-opacity="0" stroke="#000000" stroke-width="1" stroke-opacity="0"></use></g></g><g><use xlink:href="#aG7ZyJOO6" opacity="1" fill="#646b79" fill-opacity="1"></use><g><use xlink:href="#aG7ZyJOO6" opacity="1" fill-opacity="0" stroke="#000000" stroke-width="1" stroke-opacity="0"></use></g></g><g><use xlink:href="#b2emKy5zRL" opacity="1" fill="#f1f3f7" fill-opacity="1"></use><g><use xlink:href="#b2emKy5zRL" opacity="1" fill-opacity="0" stroke="#000000" stroke-width="1" stroke-opacity="0"></use></g></g><g><use xlink:href="#c6G54l2j" opacity="1" fill="#fffffc" fill-opacity="1"></use><g><use xlink:href="#c6G54l2j" opacity="1" fill-opacity="0" stroke="#000000" stroke-width="1" stroke-opacity="0"></use></g></g><g><use xlink:href="#bSzFFH2Wj" opacity="1" fill="#b22222" fill-opacity="1"></use><g><use xlink:href="#bSzFFH2Wj" opacity="1" fill-opacity="0" stroke="#000000" stroke-width="1" stroke-opacity="0"></use></g></g><g><use xlink:href="#ae5GQ8enN" opacity="1" fill="#fffffc" fill-opacity="1"></use><g><use xlink:href="#ae5GQ8enN" opacity="1" fill-opacity="0" stroke="#000000" stroke-width="1" stroke-opacity="0"></use></g></g><g><use xlink:href="#e2F6wg08IN" opacity="1" fill="#fffffc" fill-opacity="1"></use><g><use xlink:href="#e2F6wg08IN" opacity="1" fill-opacity="0" stroke="#000000" stroke-width="1" stroke-opacity="0"></use></g></g><g><use xlink:href="#g1CZZGc2dW" opacity="1" fill="#fffffc" fill-opacity="1"></use><g><use xlink:href="#g1CZZGc2dW" opacity="1" fill-opacity="0" stroke="#000000" stroke-width="1" stroke-opacity="0"></use></g></g><g><use xlink:href="#n9oHbWLox" opacity="1" fill="#fffffc" fill-opacity="1"></use><g><use xlink:href="#n9oHbWLox" opacity="1" fill-opacity="0" stroke="#000000" stroke-width="1" stroke-opacity="0"></use></g></g><g><use xlink:href="#d1NBMphx7S" opacity="1" fill="#fffffc" fill-opacity="1"></use><g><use xlink:href="#d1NBMphx7S" opacity="1" fill-opacity="0" stroke="#000000" stroke-width="1" stroke-opacity="0"></use></g></g><g><use xlink:href="#b2mtMNLkwo" opacity="1" fill="#fffffc" fill-opacity="1"></use><g><use xlink:href="#b2mtMNLkwo" opacity="1" fill-opacity="0" stroke="#000000" stroke-width="1" stroke-opacity="0"></use></g></g><g><use xlink:href="#d4ndGBvZEo" opacity="1" fill="#fffffc" fill-opacity="1"></use><g><use xlink:href="#d4ndGBvZEo" opacity="1" fill-opacity="0" stroke="#000000" stroke-width="1" stroke-opacity="0"></use></g></g><g><use xlink:href="#cd4OCC2IC" opacity="1" fill="#fffffc" fill-opacity="1"></use><g><use xlink:href="#cd4OCC2IC" opacity="1" fill-opacity="0" stroke="#000000" stroke-width="1" stroke-opacity="0"></use></g></g><g><use xlink:href="#eofJJG2ND" opacity="1" fill="#fffffc" fill-opacity="1"></use><g><use xlink:href="#eofJJG2ND" opacity="1" fill-opacity="0" stroke="#000000" stroke-width="1" stroke-opacity="0"></use></g></g><g><use xlink:href="#d3gytP7Zjf" opacity="1" fill="#fffffc" fill-opacity="1"></use><g><use xlink:href="#d3gytP7Zjf" opacity="1" fill-opacity="0" stroke="#000000" stroke-width="1" stroke-opacity="0"></use></g></g><g><use xlink:href="#b2UO8ubBca" opacity="1" fill="#fffffc" fill-opacity="1"></use><g><use xlink:href="#b2UO8ubBca" opacity="1" fill-opacity="0" stroke="#000000" stroke-width="1" stroke-opacity="0"></use></g></g><g><use xlink:href="#a2EHeB6f5" opacity="1" fill="#fffffc" fill-opacity="1"></use><g><use xlink:href="#a2EHeB6f5" opacity="1" fill-opacity="0" stroke="#000000" stroke-width="1" stroke-opacity="0"></use></g></g><g><use xlink:href="#a5GrZoGs1x" opacity="1" fill="#fffffc" fill-opacity="1"></use><g><use xlink:href="#a5GrZoGs1x" opacity="1" fill-opacity="0" stroke="#000000" stroke-width="1" stroke-opacity="0"></use></g></g><g><use xlink:href="#aBLkInRWo" opacity="1" fill="#fffffc" fill-opacity="1"></use><g><use xlink:href="#aBLkInRWo" opacity="1" fill-opacity="0" stroke="#000000" stroke-width="1" stroke-opacity="0"></use></g></g><g><use xlink:href="#c2LS0YT0EZ" opacity="1" fill="#fffffc" fill-opacity="1"></use><g><use xlink:href="#c2LS0YT0EZ" opacity="1" fill-opacity="0" stroke="#000000" stroke-width="1" stroke-opacity="0"></use></g></g><g><use xlink:href="#gvEmS2Y5e" opacity="1" fill="#fffffc" fill-opacity="1"></use><g><use xlink:href="#gvEmS2Y5e" opacity="1" fill-opacity="0" stroke="#000000" stroke-width="1" stroke-opacity="0"></use></g></g><g><use xlink:href="#cvx26cvro" opacity="1" fill="#fffffc" fill-opacity="1"></use><g><use xlink:href="#cvx26cvro" opacity="1" fill-opacity="0" stroke="#000000" stroke-width="1" stroke-opacity="0"></use></g></g><g><use xlink:href="#a48lJxU7j" opacity="1" fill="#fffffc" fill-opacity="1"></use><g><use xlink:href="#a48lJxU7j" opacity="1" fill-opacity="0" stroke="#000000" stroke-width="1" stroke-opacity="0"></use></g></g><g><use xlink:href="#ag3boIx5c" opacity="1" fill="#fffffc" fill-opacity="1"></use><g><use xlink:href="#ag3boIx5c" opacity="1" fill-opacity="0" stroke="#000000" stroke-width="1" stroke-opacity="0"></use></g></g><g><use xlink:href="#b14pmn9mmF" opacity="1" fill="#fffffc" fill-opacity="1"></use><g><use xlink:href="#b14pmn9mmF" opacity="1" fill-opacity="0" stroke="#000000" stroke-width="1" stroke-opacity="0"></use></g></g><g><use xlink:href="#h2oG60BWM9" opacity="1" fill="#fffffc" fill-opacity="1"></use><g><use xlink:href="#h2oG60BWM9" opacity="1" fill-opacity="0" stroke="#000000" stroke-width="1" stroke-opacity="0"></use></g></g><g><use xlink:href="#ajvhj5pYz" opacity="1" fill="#b22222" fill-opacity="1"></use><g><use xlink:href="#ajvhj5pYz" opacity="1" fill-opacity="0" stroke="#000000" stroke-width="1" stroke-opacity="0"></use></g></g><g><use xlink:href="#e2aXXVUP9z" opacity="1" fill="#b22222" fill-opacity="1"></use><g><use xlink:href="#e2aXXVUP9z" opacity="1" fill-opacity="0" stroke="#000000" stroke-width="1" stroke-opacity="0"></use></g></g><g><use xlink:href="#aMEfC2Dlp" opacity="1" fill="#fffffc" fill-opacity="1"></use><g><use xlink:href="#aMEfC2Dlp" opacity="1" fill-opacity="0" stroke="#000000" stroke-width="1" stroke-opacity="0"></use></g></g><g><use xlink:href="#aLcqT49ey" opacity="1" fill="#fffffc" fill-opacity="1"></use><g><use xlink:href="#aLcqT49ey" opacity="1" fill-opacity="0" stroke="#000000" stroke-width="1" stroke-opacity="0"></use></g></g><g><use xlink:href="#f5mkZq70h0" opacity="1" fill="#fffffc" fill-opacity="1"></use><g><use xlink:href="#f5mkZq70h0" opacity="1" fill-opacity="0" stroke="#000000" stroke-width="1" stroke-opacity="0"></use></g></g><g><use xlink:href="#a3rfa6Ylua" opacity="1" fill="#fffffc" fill-opacity="1"></use><g><use xlink:href="#a3rfa6Ylua" opacity="1" fill-opacity="0" stroke="#000000" stroke-width="1" stroke-opacity="0"></use></g></g><g><use xlink:href="#b1C8OOjpBu" opacity="1" fill="#fffffc" fill-opacity="1"></use><g><use xlink:href="#b1C8OOjpBu" opacity="1" fill-opacity="0" stroke="#000000" stroke-width="1" stroke-opacity="0"></use></g></g><g><use xlink:href="#bpdvrGH1C" opacity="1" fill="#fffffc" fill-opacity="1"></use><g><use xlink:href="#bpdvrGH1C" opacity="1" fill-opacity="0" stroke="#000000" stroke-width="1" stroke-opacity="0"></use></g></g><g><use xlink:href="#cBIBzKmzF" opacity="1" fill="#fffffc" fill-opacity="1"></use><g><use xlink:href="#cBIBzKmzF" opacity="1" fill-opacity="0" stroke="#000000" stroke-width="1" stroke-opacity="0"></use></g></g><g><use xlink:href="#b2aVFAM6JG" opacity="1" fill="#fffffc" fill-opacity="1"></use><g><use xlink:href="#b2aVFAM6JG" opacity="1" fill-opacity="0" stroke="#000000" stroke-width="1" stroke-opacity="0"></use></g></g><g><use xlink:href="#c1QoVJPVkO" opacity="1" fill="#fffffc" fill-opacity="1"></use><g><use xlink:href="#c1QoVJPVkO" opacity="1" fill-opacity="0" stroke="#000000" stroke-width="1" stroke-opacity="0"></use></g></g><g><use xlink:href="#g375XI8PYn" opacity="1" fill="#fffffc" fill-opacity="1"></use><g><use xlink:href="#g375XI8PYn" opacity="1" fill-opacity="0" stroke="#000000" stroke-width="1" stroke-opacity="0"></use></g></g><g><use xlink:href="#cetXi9Vct" opacity="1" fill="#3b3b3b" fill-opacity="1"></use><g><use xlink:href="#cetXi9Vct" opacity="1" fill-opacity="0" stroke="#000000" stroke-width="1" stroke-opacity="0"></use></g></g><g><use xlink:href="#avqgL3UA2" opacity="1" fill="#3b3b3b" fill-opacity="1"></use><g><use xlink:href="#avqgL3UA2" opacity="1" fill-opacity="0" stroke="#000000" stroke-width="1" stroke-opacity="0"></use></g></g><g><use xlink:href="#c23kdTFzvM" opacity="1" fill="#3b3b3b" fill-opacity="1"></use><g><use xlink:href="#c23kdTFzvM" opacity="1" fill-opacity="0" stroke="#000000" stroke-width="1" stroke-opacity="0"></use></g></g></g></g></svg>